<svg width="39" height="40" viewBox="0 0 39 40" fill="none" xmlns="http://www.w3.org/2000/svg">
<path d="M0.902344 19C0.902344 8.50659 9.40893 0 19.9023 0C30.3958 0 38.9023 8.50659 38.9023 19V21C38.9023 31.4934 30.3958 40 19.9023 40C9.40893 40 0.902344 31.4934 0.902344 21V19Z" fill="#0F1A2A"/>
<path fill-rule="evenodd" clip-rule="evenodd" d="M12.7023 11H27.1023C28.0965 11 28.9023 11.8059 28.9023 12.8V27.2C28.9023 28.1941 28.0965 29 27.1023 29H12.7023C11.7082 29 10.9023 28.1941 10.9023 27.2V12.8C10.9023 11.8059 11.7082 11 12.7023 11ZM12.7023 12.7998V27.1998H27.1023V12.7998H12.7023ZM19.1221 20.004H20.8023V25.4H22.6023V20.004H24.3865V18.204H22.6023V17.3C22.6023 16.8029 23.0053 16.4 23.5023 16.4H24.4023V14.6H23.5023C22.0112 14.6 20.8023 15.8088 20.8023 17.3V18.204H19.1221V20.004Z" fill="white"/>
</svg>
