<svg width="41" height="40" viewBox="0 0 41 40" fill="none" xmlns="http://www.w3.org/2000/svg">
<path d="M0.902344 20C0.902344 8.95431 9.85665 0 20.9023 0C31.948 0 40.9023 8.95431 40.9023 20C40.9023 31.0457 31.948 40 20.9023 40C9.85665 40 0.902344 31.0457 0.902344 20Z" fill="#0F1A2A"/>
<path fill-rule="evenodd" clip-rule="evenodd" d="M24.5023 11.3511H17.3023C14.32 11.3511 11.9023 13.6744 11.9023 16.5403V23.4593C11.9023 26.3252 14.32 28.6485 17.3023 28.6485H24.5023C27.4847 28.6485 29.9023 26.3252 29.9023 23.4593V16.5403C29.9023 13.6744 27.4847 11.3511 24.5023 11.3511ZM13.7023 16.5405C13.7023 14.6299 15.3141 13.0811 17.3023 13.0811H24.5023C26.4906 13.0811 28.1023 14.6299 28.1023 16.5405V23.4595C28.1023 25.3701 26.4906 26.919 24.5023 26.919H17.3023C15.3141 26.919 13.7023 25.3701 13.7023 23.4595V16.5405ZM20.9024 24.324C18.4171 24.324 16.4024 22.3879 16.4024 19.9996C16.4024 17.6114 18.4171 15.6753 20.9024 15.6753C23.3877 15.6753 25.4024 17.6114 25.4024 19.9996C25.4024 22.3879 23.3877 24.324 20.9024 24.324ZM20.9024 22.5945C22.3935 22.5945 23.6024 21.4329 23.6024 19.9999C23.6024 18.5669 22.3935 17.4053 20.9024 17.4053C19.4112 17.4053 18.2024 18.5669 18.2024 19.9999C18.2024 21.4329 19.4112 22.5945 20.9024 22.5945ZM26.3023 15.6754C26.3023 16.1531 25.8994 16.5403 25.4023 16.5403C24.9053 16.5403 24.5023 16.1531 24.5023 15.6754C24.5023 15.1978 24.9053 14.8106 25.4023 14.8106C25.8994 14.8106 26.3023 15.1978 26.3023 15.6754Z" fill="white"/>
</svg>
