<svg width="41" height="40" viewBox="0 0 41 40" fill="none" xmlns="http://www.w3.org/2000/svg">
<path d="M0.902344 20C0.902344 8.95431 9.85665 0 20.9023 0C31.948 0 40.9023 8.95431 40.9023 20C40.9023 31.0457 31.948 40 20.9023 40C9.85665 40 0.902344 31.0457 0.902344 20Z" fill="#0F1A2A"/>
<path fill-rule="evenodd" clip-rule="evenodd" d="M13.7023 11.3511H28.1023C29.0965 11.3511 29.9023 12.1255 29.9023 13.0808V26.9188C29.9023 27.8741 29.0965 28.6485 28.1023 28.6485H13.7023C12.7082 28.6485 11.9023 27.8741 11.9023 26.9188V13.0808C11.9023 12.1255 12.7082 11.3511 13.7023 11.3511ZM13.7023 13.0811V26.919H28.1023V13.0811H13.7023ZM21.8024 17.4053C21.3364 17.4053 20.8441 17.5421 20.4093 17.7963L20.0024 17.4053H19.1024V23.4594H20.9024V19.9999C20.9024 19.5019 21.4369 19.135 21.8024 19.135H22.7024C23.0678 19.135 23.6024 19.5019 23.6024 19.9999V23.4594H25.4024V19.9999C25.4024 18.3974 23.9569 17.4053 22.7024 17.4053H21.8024ZM17.3023 16.5403C17.7994 16.5403 18.2023 16.1531 18.2023 15.6754C18.2023 15.1978 17.7994 14.8106 17.3023 14.8106C16.8053 14.8106 16.4023 15.1978 16.4023 15.6754C16.4023 16.1531 16.8053 16.5403 17.3023 16.5403ZM16.4023 23.4594H18.2023V17.4053H16.4023V23.4594Z" fill="white"/>
</svg>
