<svg width="41" height="40" viewBox="0 0 41 40" fill="none" xmlns="http://www.w3.org/2000/svg">
<path d="M0.902344 20C0.902344 8.95431 9.85665 0 20.9023 0C31.948 0 40.9023 8.95431 40.9023 20C40.9023 31.0457 31.948 40 20.9023 40C9.85665 40 0.902344 31.0457 0.902344 20Z" fill="#0F1A2A"/>
<path fill-rule="evenodd" clip-rule="evenodd" d="M29.5244 13.457L30.9023 13.6117L30.2829 14.8046C29.9809 15.3863 29.6785 15.968 29.3759 16.5497C29.34 16.673 29.2769 16.781 29.1836 16.9216C29.1447 16.9804 29.0115 17.1673 29.0053 17.1762C28.9701 17.2269 28.9441 17.2669 28.9254 17.2989V19.5345C28.9254 25.2551 23.1643 28.8903 17.7237 28.8903C16.6104 28.8903 15.7645 28.839 14.796 28.6359C13.2021 28.3017 12.0159 27.6373 11.4731 26.476L10.9142 25.2805L12.2723 25.1605C13.5009 25.0519 14.5662 24.827 15.3842 24.5258C13.1384 24.1787 11.8798 23.2309 11.8798 21.4507V20.5148H12.8538C13.0678 20.5148 13.2608 20.4981 13.4333 20.4675C11.7478 19.499 10.9035 17.9455 10.9035 15.7906C10.9033 15.6988 10.9033 15.6988 10.9028 15.6006C10.8964 14.5144 10.9572 13.9341 11.2666 13.1934C11.4649 12.7187 11.7515 12.2792 12.1373 11.8766L12.8722 11.1094L13.5868 11.8942C15.9417 14.4804 18.2695 16.0494 20.6462 16.2391C20.6564 13.8527 22.5332 12.0468 25.0293 12.0468C26.193 12.0468 27.2485 12.4712 28.078 13.2366C28.532 13.3262 29.0142 13.3998 29.5244 13.457ZM27.371 15.0046L27.0724 14.9397L26.8662 14.7222C26.3676 14.1965 25.7418 13.9185 25.0293 13.9185C23.6043 13.9185 22.5941 14.8941 22.5941 16.2584C22.5941 16.4813 22.5881 16.6214 22.5592 16.8056C22.4439 17.5403 22.015 18.1303 21.1331 18.1303C18.2131 18.1303 15.5787 16.627 13.0099 14.0596C12.8775 14.4464 12.8463 14.8441 12.8507 15.5899C12.8513 15.6896 12.8513 15.6896 12.8515 15.7904C12.8515 17.7073 13.6596 18.7558 15.573 19.3402L16.2519 19.5476V20.2322C16.2519 21.0624 15.4335 21.8439 14.2359 22.1939C14.7849 22.5941 15.9076 22.8101 17.724 22.8101H18.6979V23.7461C18.6979 25.0871 17.0945 26.137 14.6723 26.6853C15.4623 26.9179 16.514 27.0181 17.7236 27.0181C22.218 27.0181 26.9774 24.015 26.9774 19.5342V17.1943C26.9774 16.9194 27.0603 16.6807 27.1981 16.4325C27.252 16.3355 27.3113 16.243 27.3845 16.1375C27.3983 16.1176 27.4495 16.0457 27.49 15.9881L27.5672 15.8398C27.6923 15.5994 27.8174 15.359 27.9423 15.1186C27.7481 15.0832 27.5577 15.0453 27.371 15.0046Z" fill="white"/>
</svg>
