<svg width="51" height="47" viewBox="0 0 51 47" fill="none" xmlns="http://www.w3.org/2000/svg">
<path d="M8.54955 36.2723C9.03353 37.8493 9.74088 39.1918 10.7461 40.3746C12.1515 42.0455 13.9292 43.0594 16.0791 43.3785C16.4421 43.4349 16.8237 43.4067 17.1867 43.4818C17.7638 43.5945 18.0988 44.0263 18.0337 44.5144C17.9592 45.0777 17.5311 45.4626 16.9447 45.4438C13.9292 45.3499 11.4255 44.1483 9.41513 41.8859C8.29825 40.628 7.47921 39.1917 6.89285 37.6147C6.86493 37.5396 6.8277 37.4832 6.77186 37.38C6.52056 37.8775 6.29718 38.3469 6.05519 38.8069C5.76667 39.3607 5.22685 39.5673 4.73356 39.342C4.22166 39.1073 3.99828 38.5159 4.26819 37.9526C4.9104 36.6102 5.57122 35.2866 6.24134 33.9536C6.50194 33.4466 7.02315 33.2683 7.54436 33.5217C8.866 34.1695 10.1783 34.8266 11.4813 35.5119C12.0398 35.8029 12.2166 36.4037 11.956 36.8918C11.6954 37.38 11.0997 37.5396 10.5413 37.2673C9.90841 36.9669 9.26621 36.6384 8.54955 36.2723Z" fill="white"/>
<path d="M45.9943 9.05387C46.2367 8.57468 46.4512 8.11428 46.6937 7.67267C47.02 7.06194 47.5515 6.85523 48.0737 7.12771C48.5772 7.39079 48.7451 7.99213 48.456 8.58408C47.8313 9.87132 47.1972 11.1492 46.5631 12.4364C46.2834 12.9908 45.7146 13.1881 45.1551 12.9156C43.8869 12.2861 42.6281 11.6472 41.3786 11.0082C40.8564 10.7451 40.6326 10.3599 40.6979 9.89951C40.7818 9.20421 41.4998 8.84716 42.1805 9.16663C42.8332 9.47669 43.4766 9.81495 44.2319 10.2002C44.0734 9.75857 43.9522 9.39213 43.803 9.05387C42.7307 6.55455 41.1175 4.56262 38.5252 3.57604C37.7327 3.27537 36.8468 3.17202 35.9983 3.05927C35.3455 2.9747 34.8886 2.77739 34.7581 2.34518C34.5343 1.61229 35.0938 0.963973 35.8864 1.00156C40.2223 1.22706 43.1783 3.52906 45.1644 7.26865C45.4814 7.82301 45.7146 8.43374 45.9943 9.05387Z" fill="white"/>
<path fill-rule="evenodd" clip-rule="evenodd" d="M33.13 46.26C42.5906 46.26 50.26 38.5906 50.26 29.13C50.26 19.6694 42.5906 12 33.13 12C23.6694 12 16 19.6694 16 29.13C16 38.5906 23.6694 46.26 33.13 46.26ZM29.16 31.34V36.28H31.38V31.34H33.14L34.74 36.28H37.9V31.34H39.04V29.86H37.9V28.42H39.04V26.94H37.9V22H35.68V26.94H33.86L32.3 22H29.16V26.94H28V28.42H29.16V29.86H28V31.34H29.16ZM32.7 29.86H31.38L31.34 28.42H32.26L32.7 29.86ZM35.84 33.16H35.74L35.22 31.34H35.76L35.84 33.16ZM31.86 26.94H31.3L31.2 25.02H31.28L31.86 26.94ZM35.72 29.86H34.8L34.34 28.42H35.68L35.72 29.86Z" fill="#1E5AE8"/>
<path d="M14.4156 31.7148C13.5257 26.4146 14.6591 21.6146 17.769 17.4302C20.7665 13.3997 24.7756 11.0333 29.6746 10.3985C30.1243 10.3407 30.5645 10.3023 31.0048 10.2734C28.6817 4.26135 22.9678 0 16.2797 0C7.54013 0 0.449219 7.27219 0.449219 16.247C0.449219 24.6254 6.62215 31.5224 14.5467 32.4074C14.4999 32.1765 14.4531 31.9457 14.4156 31.7148Z" fill="#A8C2FF"/>
</svg>
