<svg width="50" height="43" viewBox="0 0 50 43" fill="none" xmlns="http://www.w3.org/2000/svg">
<path d="M0.116361 0.0542041C0.168745 0.0542041 0.203667 0.0542041 0.256051 0.0182068C0.605274 0.0182068 0.954498 0.0722028 1.30372 0.0182068C2.00217 -0.0717866 2.28155 0.162196 2.24663 0.936139C2.2117 1.81807 2.10694 2.73601 2.31647 3.61794C2.31647 3.76193 2.29901 3.88792 2.29901 4.03191C2.17678 4.48188 2.17678 4.93184 2.29901 5.36381C2.22916 5.63379 2.22916 5.92177 2.29901 6.19175C2.19424 8.13561 2.17678 10.0615 2.29901 12.0053C2.2117 12.2933 2.22916 12.5633 2.29901 12.8513C2.19424 14.7951 2.17678 16.721 2.29901 18.6648C2.22916 18.9348 2.2117 19.2228 2.29901 19.4928C2.17678 19.9427 2.17678 20.3927 2.29901 20.8247C2.29901 20.9687 2.31647 21.0947 2.31647 21.2386C2.15932 22.4445 2.14186 23.6505 2.33393 24.8384C2.19424 25.9543 2.526 27.0162 2.753 28.0961C2.71808 28.2401 2.73554 28.3481 2.87523 28.4381C3.04984 29.464 3.3816 30.436 3.9229 31.3179C3.97528 31.5879 4.0102 31.8579 4.21974 32.0558C4.48166 32.5238 4.70865 33.0098 4.98803 33.4597C7.36275 37.2935 10.7153 39.9933 14.5568 42.0991C14.4869 42.4591 14.2075 42.2971 14.0155 42.3151C13.2297 42.3331 12.4614 42.2791 11.6757 42.3331C10.9423 42.3871 10.3486 42.1531 9.77239 41.6671C9.05648 41.0732 8.30565 40.5332 7.55482 39.9753C7.39767 39.6513 7.13576 39.4173 6.82145 39.2553C5.91347 38.2114 4.98803 37.1855 4.08005 36.1415C4.0102 35.9436 3.9229 35.7456 3.73083 35.6556C3.08476 34.5217 2.45616 33.3697 1.8101 32.2358C1.75771 32.1638 1.70533 32.0918 1.65295 32.0198H1.67041C1.40849 31.1199 1.14657 30.22 0.727503 29.374C0.762425 29.1041 0.69258 28.8701 0.570352 28.6361C-0.459857 21.7246 0.256051 14.7771 0.0814391 7.84763C0.0465168 5.27382 0.116361 2.66401 0.116361 0.0542041Z" fill="#8BA2C2"/>
<path d="M45.8296 5.6158C46.8598 5.03984 47.8725 4.58988 48.99 5.41781C50.2123 6.31775 50.3695 8.06362 49.217 9.03555C48.2392 9.86349 47.1392 10.5474 46.0915 11.2854C44.6771 12.2753 43.2279 13.2292 41.9707 14.4351C41.9183 14.4891 41.8484 14.5251 41.796 14.5791C41.6563 14.6151 41.5341 14.6691 41.4817 14.8131C41.4119 14.8671 41.342 14.9211 41.2722 14.9751C40.9579 15.0471 40.7484 15.2631 40.5912 15.5151C40.5214 15.5691 40.469 15.6231 40.3991 15.6771C40.2071 15.7131 40.0674 15.821 40.015 16.019H40.0325C39.9626 16.073 39.8753 16.145 39.8055 16.199C39.7531 16.199 39.7356 16.217 39.7182 16.253C39.6658 16.307 39.5959 16.361 39.5435 16.415C39.4737 16.469 39.4213 16.523 39.3515 16.595C39.2118 16.613 39.107 16.685 39.0721 16.811L39.0372 16.847C38.6705 17.045 38.3736 17.3329 38.1292 17.6749C37.9197 17.6929 37.7974 17.8369 37.7276 18.0169C37.4482 18.1249 37.2736 18.3589 37.0641 18.5568L37.0291 18.5388L37.0466 18.5748C36.8196 18.7728 36.6101 18.9888 36.3831 19.1868C36.3307 19.2228 36.2958 19.2768 36.2434 19.3128L36.2085 19.3488C36.1561 19.4028 36.1037 19.4388 36.0688 19.4928C35.8767 19.5468 35.7545 19.6728 35.6846 19.8527C34.6893 20.5187 33.8861 21.4366 33.0655 22.3006C31.1796 24.2624 29.1891 26.1523 27.6176 28.4201V28.4381C27.4779 28.4561 27.3731 28.5281 27.3382 28.6901C27.2683 28.7981 27.181 28.8881 27.1112 28.9961C27.0588 29.0681 26.989 29.1401 26.9366 29.2121C26.8318 29.3381 26.727 29.464 26.6223 29.59C26.4477 29.644 26.3604 29.788 26.3254 29.95L26.2905 29.986C26.1508 30.04 26.081 30.148 26.081 30.274C25.8191 30.58 25.5397 30.8679 25.3127 31.2099C24.4746 32.4518 23.4094 32.9558 21.9776 32.4158C21.9078 32.3618 21.8205 32.3258 21.7506 32.2718C21.6982 32.2358 21.6458 32.2178 21.5935 32.1818C21.576 32.0558 21.5062 31.9659 21.3665 31.9299C20.6156 30.7779 20.0394 29.518 19.1838 28.4381C18.9568 27.8082 18.5901 27.2682 18.1012 26.8002C17.8044 26.0623 17.3155 25.4683 16.8091 24.8744C16.163 23.8305 15.4821 22.8045 14.5915 21.9586C14.5042 21.6526 14.3296 21.4186 14.0677 21.2566C13.4042 20.1947 12.4962 19.3488 11.693 18.3949C10.7501 17.2969 10.7675 15.911 11.7279 14.9391C12.6359 14.0212 14.1375 14.0392 15.0979 15.0651C15.8487 15.857 16.5472 16.703 17.2456 17.5309C19.341 20.0327 21.2442 22.6605 22.9554 25.4503C23.1824 25.8283 23.4094 26.0263 23.7237 25.5403C24.1253 24.9284 24.7365 24.4784 25.0682 23.7945C25.8889 23.0025 26.6921 22.2106 27.3556 21.2566C27.8795 20.8427 28.3335 20.3567 28.7525 19.8168C29.5034 19.1508 30.2367 18.4309 30.8828 17.6569C31.4416 17.3509 31.8432 16.865 32.2448 16.397C33.048 15.6591 33.8512 14.9211 34.6719 14.1832C35.0386 13.9852 35.3354 13.6972 35.5799 13.3552C36.7323 12.5093 37.8324 11.6094 38.8975 10.6554C38.9499 10.6014 39.0197 10.5474 39.0721 10.4934C40.696 9.28753 42.3199 8.06362 43.9612 6.85771C44.1882 6.83971 44.3803 6.73172 44.4851 6.49773C44.5549 6.44374 44.6073 6.40774 44.6771 6.35375C44.7644 6.29975 44.8343 6.22775 44.9216 6.17376C45.0613 6.08377 45.2184 6.01177 45.3581 5.92178C45.5327 5.93978 45.7073 5.83178 45.8296 5.6158Z" fill="#1E5AE8"/>
<path d="M39.0549 28.4741C39.0375 28.5281 39.0375 28.5821 39.02 28.6541C38.5136 29.842 37.9199 30.9759 37.2913 32.0738C36.6977 32.7938 36.104 33.4957 35.5278 34.2157C35.0039 34.7016 34.4801 35.1876 33.9737 35.6736C33.3277 36.1595 32.699 36.6455 32.053 37.1315C29.818 38.5174 27.4607 39.6513 25.0511 40.6772C24.0907 40.8752 23.1827 41.5051 22.1525 41.0372C22.0477 40.9112 21.908 40.8752 21.7334 40.9112C21.681 40.8932 21.6112 40.8752 21.5588 40.8752C20.4064 40.3892 19.2365 39.9212 18.084 39.4353V39.4533C18.0142 39.4173 17.9444 39.3633 17.892 39.3273C17.8047 39.2913 17.7174 39.2553 17.6301 39.2373C16.6173 38.6613 15.5871 38.0854 14.5744 37.4914C13.7711 36.8255 12.9505 36.1775 12.0425 35.6556C11.8504 35.3136 11.606 35.0256 11.2218 34.8816C10.7678 34.2517 10.2091 33.7117 9.6503 33.1897C9.6503 33.0638 9.63284 32.9558 9.47569 32.9558C9.4233 32.9198 9.38838 32.8658 9.336 32.8298C9.28362 32.7578 9.21377 32.6858 9.16139 32.5958C9.109 32.3798 8.98678 32.2178 8.77724 32.1098C8.4804 31.3719 8.02641 30.7239 7.58988 30.058C7.39781 29.608 7.2232 29.14 7.03112 28.6901C6.6819 27.3942 6.41998 26.0803 6.26283 24.7484C6.29775 23.6145 6.3676 22.4625 6.21045 21.3286C6.35014 19.8887 6.33268 18.4308 6.22791 16.9909C6.33268 16.091 6.31522 15.1911 6.22791 14.2731C6.31522 12.9592 6.31522 11.6633 6.22791 10.3494C6.31522 9.25152 6.31522 8.1716 6.22791 7.07368C6.24537 6.08375 6.29775 5.11182 6.28029 4.1219C6.26283 3.54594 6.50729 3.36595 7.01366 3.49194C7.86926 3.70793 8.74232 3.70793 9.59792 3.74393C12.6012 3.90591 15.6046 3.77992 18.538 2.93399C18.7126 2.89799 18.8873 2.84399 19.0619 2.808C19.8127 2.79 20.4937 2.53802 21.1572 2.19604C21.2794 2.16004 21.3842 2.10605 21.5064 2.07005C22.4668 1.78207 23.4097 1.53009 24.405 2.07005C24.8939 2.34003 25.4527 2.59201 26.0463 2.55601C26.0987 2.59201 26.1511 2.61001 26.2035 2.59201C26.3257 2.64601 26.448 2.736 26.5876 2.772C30.6212 3.85192 34.6896 4.0859 38.8105 3.50994C39.4391 3.41995 39.7184 3.49194 39.6835 4.22989C39.6486 5.12982 39.701 6.01176 39.7359 6.91169C39.701 7.21767 39.474 7.39766 39.3168 7.61364C39.1771 7.61364 39.0724 7.66764 39.0375 7.81163C39.0025 7.81163 38.9851 7.82962 38.9676 7.86562L38.8978 7.88362L38.8803 7.95561C38.8279 8.00961 38.7581 8.06361 38.7057 8.1176C37.6406 8.78355 36.6453 9.5395 35.7722 10.4574C35.6674 10.5294 35.5801 10.6194 35.4754 10.6914C33.4499 12.2213 31.6165 14.0392 29.7481 15.839C27.7575 17.7469 25.8193 19.7267 24.0208 21.8326C23.5494 22.3905 23.3399 22.1206 23.0605 21.6886C22.1176 20.2847 21.1921 18.8808 20.0222 17.6749C19.4809 16.775 18.8349 15.983 18.0666 15.2811C17.7697 14.7051 17.2983 14.2911 16.8443 13.8772C16.303 12.9952 15.4474 12.6353 14.5569 12.3113C13.3171 11.8973 12.1472 11.9873 11.0472 12.7613C10.4186 13.0132 9.9646 13.4452 9.68522 14.0752C8.84709 15.1551 8.60263 16.343 9.00424 17.6749C9.16139 19.0068 9.99952 19.8887 10.925 20.7347C11.0821 21.0586 11.3091 21.2926 11.5885 21.4906C13.387 23.7584 15.1156 26.0803 16.7745 28.4561C17.1062 29.158 17.5078 29.806 18.0317 30.382C18.2587 31.0119 18.6079 31.5519 19.0095 32.0738C19.5333 33.2437 20.2842 34.1437 21.5763 34.4497C22.7811 35.0076 23.951 34.9536 25.1034 34.2517C26.1162 33.8197 26.7622 32.9918 27.3035 32.0558C27.7925 31.5699 28.229 31.0479 28.5782 30.436C30.2021 28.6541 31.7911 26.8362 33.4499 25.0723C35.3008 23.0925 37.2739 21.2386 39.2819 19.4388C39.3867 19.3488 39.474 19.2048 39.8057 19.2768C39.8057 20.1587 39.8057 21.0586 39.8057 21.9766C39.8057 22.2286 39.8057 22.4625 39.8057 22.7145C39.7708 22.7685 39.7708 22.8225 39.8057 22.8765C39.8057 23.1825 39.8057 23.4885 39.8057 23.7944C39.8057 23.9024 39.8057 24.0284 39.8057 24.1364C39.8057 24.3164 39.8057 24.5144 39.8057 24.6944C39.6137 25.9723 39.4216 27.2502 39.0549 28.4741Z" fill="#1E5AE8"/>
<path d="M43.717 17.6749C43.5249 16.199 44.0138 15.0651 45.3583 14.4171C45.4456 14.3631 45.498 14.2372 45.5853 14.1472C45.7076 14.1292 45.8472 14.1292 45.9695 14.1112L45.952 14.0932C45.9695 15.2811 45.9869 16.469 46.0044 17.6749C45.9171 18.8808 45.9345 20.0687 46.0044 21.2746C46.0044 22.2286 46.0044 23.2005 46.0044 24.1544C45.8472 25.3963 45.7076 26.6382 45.5504 27.8622C45.271 30.076 44.2583 32.0378 43.3852 34.0357C42.1979 35.9076 40.8184 37.6354 39.3168 39.2373C39.212 39.3273 39.1247 39.4173 39.0199 39.5073C37.9897 40.3172 36.977 41.1452 35.9468 41.9551C35.7198 42.1351 35.4928 42.3151 35.1785 42.3151C33.9736 42.3151 32.7688 42.3151 31.4243 42.3151C31.7212 42.0631 31.8783 41.9191 32.0355 41.7751C34.9515 40.2632 37.431 38.1754 39.5438 35.6376C40.4517 34.5577 41.3073 33.4237 41.8137 32.0558C42.2502 31.4619 42.4947 30.7779 42.6519 30.058C42.9836 29.572 43.1233 29.0321 43.1757 28.4381C43.4201 27.7542 43.5598 27.0522 43.5773 26.3143C43.5948 26.2603 43.6122 26.1883 43.6297 26.1343C43.6471 25.9363 43.6646 25.7383 43.6821 25.5403C43.8392 24.1004 43.7694 22.6785 43.7344 21.2386C43.7868 20.0687 43.7868 18.8808 43.717 17.6749Z" fill="#A8C2FF"/>
<path d="M45.9694 0.0903397C45.917 1.11626 46.0742 2.14219 45.8821 3.16811C45.4979 3.3661 45.0963 3.54608 44.7296 3.78007C43.8217 4.33803 43.8217 4.35602 43.7169 3.2941C43.7343 2.89813 43.7518 2.52016 43.7518 2.12419C43.7693 -0.125644 43.7693 -0.125644 45.9694 0.0903397Z" fill="#A8C2FF"/>
</svg>
