<svg width="13" height="20" viewBox="0 0 12 18" fill="none" xmlns="http://www.w3.org/2000/svg">
<path d="M11 10.9999H3.41L11.71 2.70994C11.8983 2.52164 12.0041 2.26624 12.0041 1.99994C12.0041 1.73364 11.8983 1.47825 11.71 1.28994C11.5217 1.10164 11.2663 0.99585 11 0.99585C10.7337 0.99585 10.4783 1.10164 10.29 1.28994L2 9.58994V1.99994C2 1.73472 1.89464 1.48037 1.70711 1.29283C1.51957 1.1053 1.26522 0.999941 1 0.999941C0.734784 0.999941 0.48043 1.1053 0.292893 1.29283C0.105357 1.48037 0 1.73472 0 1.99994V11.9999C0.00157999 12.1306 0.028759 12.2597 0.0799999 12.3799C0.181475 12.6243 0.375651 12.8185 0.62 12.9199C0.740222 12.9712 0.869323 12.9984 1 12.9999H11C11.2652 12.9999 11.5196 12.8946 11.7071 12.707C11.8946 12.5195 12 12.2652 12 11.9999C12 11.7347 11.8946 11.4804 11.7071 11.2928C11.5196 11.1053 11.2652 10.9999 11 10.9999Z" fill="#FF5367"/>
</svg>
