<svg width="63" height="38" viewBox="0 0 63 38" fill="none" xmlns="http://www.w3.org/2000/svg">
<rect width="19" height="4" rx="2" transform="matrix(-1 0 0 1 30 7)" fill="#8BA2C2"/>
<rect y="16" width="21" height="4" rx="2" fill="#8BA2C2"/>
<rect x="6" y="26" width="13" height="4" rx="2" fill="#8BA2C2"/>
<path fill-rule="evenodd" clip-rule="evenodd" d="M23.7648 30.1518C23.7188 30.1463 23.6688 30.1404 23.6131 30.1345C24.2526 28.8206 24.8712 27.5597 25.4897 26.2988C28.5614 20.0261 31.6331 13.7428 34.6943 7.45945C34.883 7.078 35.0927 6.94025 35.5225 6.94025C39.7684 6.96144 44.0143 6.96144 48.2602 6.94025C48.711 6.92966 48.8787 7.08859 49.015 7.50183C50.0214 10.6064 52.1076 12.6408 55.1584 13.6686C55.5358 13.7957 55.6301 13.9653 55.6301 14.3361L55.6301 14.3452C55.6196 17.1712 55.6092 19.9867 55.6301 22.8128C55.6301 23.2048 55.4939 23.3532 55.1374 23.4697C52.0552 24.5187 49.969 26.5849 48.973 29.7424C48.8682 30.0709 48.7424 30.1874 48.3964 30.1874C40.2843 30.1768 32.1826 30.1768 24.0809 30.1768H24.0744C23.9762 30.1768 23.8835 30.1658 23.7648 30.1518ZM42.2532 15.0672C42.4455 15.1229 42.6408 15.1795 42.8401 15.2367C42.8753 15.1456 42.9128 15.0508 42.9515 14.9528C43.0974 14.5836 43.261 14.1698 43.3853 13.7427C43.5949 13.2024 43.4691 12.8527 42.9449 12.6302C42.5427 12.4632 42.1306 12.3211 41.6919 12.1698C41.4902 12.1003 41.2829 12.0288 41.0684 11.952V10.2355H38.7829V12.1534C38.7075 12.1832 38.6341 12.211 38.5628 12.2379C38.4061 12.2972 38.2593 12.3527 38.1225 12.4183C36.8749 13.001 36.0782 13.9441 35.9314 15.3533C35.7846 16.7943 36.3822 17.8963 37.5878 18.6486C37.9272 18.862 38.2882 19.0371 38.6515 19.2131C38.7932 19.2819 38.9353 19.3507 39.0765 19.4221C39.2228 19.4941 39.3717 19.5607 39.5205 19.6272C39.7875 19.7466 40.0539 19.8657 40.3031 20.0155C40.995 20.4181 41.2676 20.9691 41.1103 21.573C40.9635 22.1558 40.4289 22.5161 39.6636 22.569C38.8563 22.622 38.112 22.4207 37.3991 22.0499C37.0951 21.8909 36.7911 21.732 36.4346 21.5413C36.394 21.6579 36.3543 21.7728 36.315 21.8862C36.1619 22.329 36.0166 22.7491 35.858 23.1624C35.6693 23.6604 35.8161 24.0419 36.2669 24.275C36.6338 24.4657 37.0217 24.6352 37.4201 24.7624C37.6656 24.8404 37.9253 24.8899 38.2022 24.9427C38.339 24.9688 38.48 24.9957 38.6257 25.0273V26.8709H41.0055V24.8683C41.0447 24.8535 41.0834 24.8389 41.1216 24.8245C41.3287 24.7463 41.522 24.6734 41.7079 24.5928C43.532 23.7982 44.4231 21.8591 43.8151 19.9625C43.4901 18.9347 42.7667 18.2248 41.8442 17.7374C41.4048 17.5036 40.9527 17.2893 40.5002 17.0747C40.132 16.9001 39.7636 16.7254 39.4015 16.54C38.7829 16.2222 38.6152 15.9043 38.72 15.3851C38.8144 14.9189 39.1918 14.6222 39.7999 14.5586C39.8215 14.5564 39.8432 14.5541 39.865 14.5518C40.0547 14.5318 40.2502 14.5111 40.4289 14.5586C41.0306 14.7127 41.6261 14.8854 42.2532 15.0672Z" fill="#1E5AE8"/>
<path d="M37.2943 3.74032H36.4975C36.6302 3.46264 36.7601 3.18929 36.8884 2.91954C37.3278 1.99524 37.7472 1.11312 38.1854 0.243703C38.2483 0.12715 38.5418 0.0635748 38.7201 0.0635748C40.8315 0.0494419 42.9384 0.0447344 45.0467 0.0400234C46.0998 0.0376705 47.1532 0.0353167 48.2077 0.0317874C49.1513 0.0282555 50.0948 0.0235462 51.0383 0.018837C52.9254 0.00941851 54.8124 0 56.6995 0C60.4212 0 63.0001 2.60657 63.0001 6.35748V30.8868C62.9897 34.5105 60.3792 37.1383 56.8043 37.1383H20.4995C20.6131 36.9055 20.7294 36.681 20.8434 36.4609C21.1187 35.9294 21.3804 35.424 21.5584 34.892C21.9358 33.7582 22.5648 33.398 23.8019 33.4086C32.3901 33.4594 40.9851 33.456 49.5814 33.4526C51.7304 33.4518 53.8795 33.451 56.0285 33.451H56.9196C58.3454 33.4298 59.3518 32.4126 59.3518 30.9609C59.3623 24.6141 59.3623 18.2778 59.3623 11.9415C59.3623 11.0037 59.3597 10.0687 59.3571 9.13358C59.3545 8.1985 59.3518 7.26342 59.3518 6.32569C59.3413 4.67275 58.3769 3.69794 56.7414 3.69794C53.4928 3.70324 50.2468 3.7112 47.0021 3.71916C43.7653 3.72709 40.5298 3.73503 37.2943 3.74032Z" fill="#1E5AE8"/>
</svg>
