<svg width="133" height="40" viewBox="0 0 133 40" fill="none" xmlns="http://www.w3.org/2000/svg">
<g clip-path="url(#clip0_1688_352)">
<path d="M13.3543 30.4629L12.312 39.7637C12.3067 39.801 12.2937 39.8369 12.2738 39.8687C12.254 39.9008 12.2276 39.9285 12.1964 39.9501C12.1651 39.9716 12.1297 39.9866 12.0924 39.9942C12.0551 40.0017 12.0166 40.0013 11.9793 39.9935L3.86241 38.0348C2.95039 37.8171 2.14959 37.28 1.60905 36.523C1.06849 35.7661 0.825011 34.8413 0.923907 33.9206L0.990439 33.3188C1.17852 32.5083 1.63945 31.7847 2.298 31.266C2.95656 30.7472 3.77384 30.4642 4.61643 30.4629H13.3543Z" fill="#95B3EF"/>
<path d="M29.145 16.6103C28.7059 20.4862 26.8346 24.0663 23.8888 26.6663C20.943 29.2664 17.1295 30.7038 13.1773 30.7039H4.62796C3.78635 30.7026 2.96925 30.9835 2.3105 31.5003C1.65174 32.0172 1.19037 32.7395 1.00195 33.5489L2.44348 20.6918H12.4233C13.1765 20.6932 13.9227 20.5479 14.6189 20.2641C15.3151 19.9803 15.9476 19.5636 16.4803 19.0381C17.0129 18.5124 17.4352 17.8882 17.7228 17.2012C18.0103 16.5142 18.1576 15.7779 18.1561 15.0346C18.1561 14.2922 18.0078 13.5571 17.7195 12.8714C17.4313 12.1856 17.0088 11.5627 16.4764 11.0383C15.9439 10.5138 15.3118 10.0982 14.6163 9.81508C13.9208 9.53197 13.1756 9.38701 12.4233 9.38844H3.74086L4.73886 0.295444C4.7471 0.21419 4.7858 0.138898 4.8473 0.084268C4.90879 0.0296384 4.98876 -0.000405111 5.07149 4.12642e-06H14.0977C16.2286 0.00079972 18.3353 0.445248 20.2803 1.30431C22.2252 2.16337 23.9645 3.41772 25.3847 4.98537C26.8049 6.55306 27.8739 8.39877 28.5218 10.4019C29.1698 12.4051 29.3822 14.5206 29.145 16.6103Z" fill="#1E5AE8"/>
<path d="M11.6803 17.6718C13.1746 17.6718 14.3859 16.4765 14.3859 15.0019C14.3859 13.5274 13.1746 12.332 11.6803 12.332C10.186 12.332 8.97461 13.5274 8.97461 15.0019C8.97461 16.4765 10.186 17.6718 11.6803 17.6718Z" fill="#1E5AE8"/>
<path d="M18.167 16.1505C18.0634 17.5276 17.4795 18.8268 16.5148 19.8271C15.9786 20.359 15.341 20.7808 14.6387 21.0682C13.9364 21.3555 13.1833 21.5027 12.423 21.5012H2.35449L2.4432 20.6915H12.423C13.8412 20.6907 15.2088 20.1713 16.2614 19.2336C17.3141 18.2958 17.9772 17.0064 18.1226 15.6143C18.1488 15.7919 18.1636 15.971 18.167 16.1505Z" fill="#234C9E"/>
<path d="M41.3457 22.8171H43.861V17.4632C44.443 18.5094 45.6903 19.3504 47.4156 19.3504C50.2219 19.3504 52.2383 17.2581 52.2383 13.8119V13.6478C52.2383 10.1812 50.1388 8.19141 47.4156 8.19141C45.815 8.19141 44.4638 9.11448 43.861 10.1402V8.41705H41.3457V22.8171ZM46.792 17.3812C44.9627 17.3812 43.7779 16.253 43.7779 13.853V13.6889C43.7779 11.3094 45.0251 10.1402 46.7712 10.1402C48.4134 10.1402 49.6607 11.3094 49.6607 13.6889V13.853C49.6607 16.1504 48.6421 17.3812 46.792 17.3812ZM59.2814 19.3504C62.067 19.3504 63.917 18.1196 64.2704 15.8632H61.8383C61.6512 16.9094 60.8613 17.5043 59.3438 17.5043C57.4729 17.5043 56.4336 16.3555 56.3504 14.3248H64.312V13.6068C64.312 9.77089 61.8799 8.19141 59.1775 8.19141C56.0802 8.19141 53.7728 10.4068 53.7728 13.7299V13.894C53.7728 17.2786 56.0802 19.3504 59.2814 19.3504ZM56.392 12.6632C56.6414 11.0017 57.66 9.99653 59.1775 9.99653C60.7366 9.99653 61.6928 10.8171 61.8175 12.6632H56.392ZM70.3809 19.3504C73.1664 19.3504 74.7254 18.0991 74.7254 15.9248C74.7254 13.6478 73.208 13.0325 70.6511 12.6427C68.9258 12.3555 68.4061 12.0478 68.4061 11.2684C68.4061 10.5094 69.0505 9.99653 70.1314 9.99653C71.2955 9.99653 71.8568 10.4478 72.0647 11.4325H74.3928C74.1226 9.01192 72.3557 8.19141 70.1314 8.19141C68.0943 8.19141 66.0571 9.25807 66.0571 11.4119C66.0571 13.4222 67.1173 14.2222 69.9859 14.6735C71.5865 14.9402 72.3141 15.2684 72.3141 16.1504C72.3141 17.053 71.7113 17.5248 70.3601 17.5248C68.8842 17.5248 68.3229 16.8889 68.1982 15.8017H65.8284C65.9324 18.0786 67.5746 19.3504 70.3809 19.3504ZM79.7799 19.3504C81.4429 19.3504 82.3991 18.7555 83.1059 17.8325V19.1453H85.5796V12.1094C85.5796 9.17602 83.6671 8.19141 81.235 8.19141C78.8029 8.19141 76.7865 9.23756 76.5786 11.7402H79.0108C79.1355 10.6735 79.7799 10.0581 81.0895 10.0581C82.5654 10.0581 83.0643 10.7761 83.0643 12.2119V12.7658H81.7131C78.595 12.7658 76.1421 13.6684 76.1421 16.1709C76.1421 18.4068 77.7843 19.3504 79.7799 19.3504ZM80.3827 17.5658C79.1355 17.5658 78.6366 16.9709 78.6366 16.0684C78.6366 14.7555 79.8631 14.3248 81.7755 14.3248H83.0643V15.3914C83.0643 16.7658 81.921 17.5658 80.3827 17.5658ZM88.4625 22.8171H90.9777V17.4632C91.5598 18.5094 92.807 19.3504 94.5324 19.3504C97.3387 19.3504 99.3551 17.2581 99.3551 13.8119V13.6478C99.3551 10.1812 97.2555 8.19141 94.5324 8.19141C92.9318 8.19141 91.5806 9.11448 90.9777 10.1402V8.41705H88.4625V22.8171ZM93.9088 17.3812C92.0795 17.3812 90.8946 16.253 90.8946 13.853V13.6889C90.8946 11.3094 92.1418 10.1402 93.888 10.1402C95.5302 10.1402 96.7774 11.3094 96.7774 13.6889V13.853C96.7774 16.1504 95.7588 17.3812 93.9088 17.3812ZM106.398 19.3504C109.184 19.3504 111.034 18.1196 111.387 15.8632H108.955C108.768 16.9094 107.978 17.5043 106.461 17.5043C104.59 17.5043 103.55 16.3555 103.467 14.3248H111.429V13.6068C111.429 9.77089 108.997 8.19141 106.294 8.19141C103.197 8.19141 100.89 10.4068 100.89 13.7299V13.894C100.89 17.2786 103.197 19.3504 106.398 19.3504ZM103.509 12.6632C103.758 11.0017 104.777 9.99653 106.294 9.99653C107.853 9.99653 108.81 10.8171 108.934 12.6632H103.509ZM118.457 19.3504C121.242 19.3504 123.092 18.1196 123.446 15.8632H121.013C120.826 16.9094 120.036 17.5043 118.519 17.5043C116.648 17.5043 115.609 16.3555 115.526 14.3248H123.487V13.6068C123.487 9.77089 121.055 8.19141 118.353 8.19141C115.255 8.19141 112.948 10.4068 112.948 13.7299V13.894C112.948 17.2786 115.255 19.3504 118.457 19.3504ZM115.567 12.6632C115.817 11.0017 116.835 9.99653 118.353 9.99653C119.912 9.99653 120.868 10.8171 120.993 12.6632H115.567ZM125.734 19.1453H128.249V13.5658C128.249 11.2889 129.579 10.5914 131.783 10.5709V8.25295C129.953 8.27346 128.935 9.07346 128.249 10.4273V8.41705H125.734V19.1453Z" fill="#1E5AE8"/>
</g>
<defs>
<clipPath id="clip0_1688_352">
<rect width="132" height="40" fill="white" transform="translate(0.902344)"/>
</clipPath>
</defs>
</svg>
