<svg width="129" height="39" viewBox="0 0 129 39" fill="none" xmlns="http://www.w3.org/2000/svg">
<g clip-path="url(#clip0_1532_628)">
<path d="M12.169 29.7015L11.1504 38.7698C11.1452 38.8062 11.1325 38.8412 11.1131 38.8722C11.0937 38.9035 11.0679 38.9305 11.0374 38.9516C11.0068 38.9725 10.9722 38.9871 10.9358 38.9946C10.8993 39.0019 10.8617 39.0015 10.8252 38.9939L2.8928 37.0841C2.0015 36.8719 1.2189 36.3482 0.690641 35.6101C0.162375 34.8722 -0.0755754 33.9705 0.0210729 33.0728L0.0860931 32.486C0.269898 31.6958 0.720359 30.9903 1.36394 30.4846C2.00753 29.9787 2.80624 29.7028 3.62968 29.7015H12.169Z" fill="#95B3EF"/>
<path d="M27.6011 16.195C27.172 19.974 25.3432 23.4646 22.4644 25.9996C19.5855 28.5347 15.8587 29.9362 11.9963 29.9363H3.64126C2.81877 29.935 2.02024 30.2089 1.37647 30.7128C0.732677 31.2168 0.281794 31.921 0.0976562 32.7102L1.50642 20.1745H11.2594C11.9955 20.1759 12.7248 20.0342 13.4051 19.7575C14.0855 19.4808 14.7037 19.0745 15.2242 18.5621C15.7447 18.0496 16.1574 17.441 16.4385 16.7712C16.7195 16.1013 16.8634 15.3835 16.862 14.6587C16.862 13.9349 16.717 13.2182 16.4353 12.5496C16.1536 11.881 15.7407 11.2736 15.2204 10.7623C14.7 10.251 14.0823 9.84575 13.4026 9.5697C12.7229 9.29367 11.9947 9.15234 11.2594 9.15373H2.77432L3.74963 0.288058C3.75769 0.208835 3.79551 0.135426 3.85561 0.0821613C3.9157 0.0288974 3.99386 -0.000394983 4.07471 4.02326e-06H12.8958C14.9783 0.000779727 17.0371 0.434117 18.9379 1.2717C20.8386 2.10929 22.5383 3.33228 23.9263 4.86074C25.3142 6.38923 26.3589 8.1888 26.9921 10.1419C27.6253 12.095 27.8329 14.1576 27.6011 16.195Z" fill="white"/>
<path d="M10.5328 17.2298C11.9932 17.2298 13.1769 16.0644 13.1769 14.6267C13.1769 13.189 11.9932 12.0235 10.5328 12.0235C9.0725 12.0235 7.88867 13.189 7.88867 14.6267C7.88867 16.0644 9.0725 17.2298 10.5328 17.2298Z" fill="white"/>
<path d="M16.8721 15.7468C16.7708 17.0895 16.2002 18.3562 15.2574 19.3315C14.7334 19.8501 14.1103 20.2614 13.424 20.5416C12.7376 20.8217 12.0016 20.9652 11.2586 20.9638H1.41895L1.50564 20.1743H11.2586C12.6446 20.1735 13.9811 19.6671 15.0098 18.7528C16.0386 17.8385 16.6866 16.5813 16.8287 15.224C16.8543 15.3972 16.8687 15.5718 16.8721 15.7468Z" fill="#234C9E"/>
<path d="M39.5244 22.2467H41.9825V17.0266C42.5513 18.0467 43.7703 18.8667 45.4564 18.8667C48.1989 18.8667 50.1695 16.8267 50.1695 13.4666V13.3066C50.1695 9.92668 48.1177 7.98666 45.4564 7.98666C43.8921 7.98666 42.5716 8.88666 41.9825 9.88671V8.20666H39.5244V22.2467ZM44.8469 16.9467C43.0592 16.9467 41.9013 15.8467 41.9013 13.5067V13.3467C41.9013 11.0267 43.1202 9.88671 44.8266 9.88671C46.4315 9.88671 47.6504 11.0267 47.6504 13.3467V13.5067C47.6504 15.7467 46.655 16.9467 44.8469 16.9467ZM57.0525 18.8667C59.7748 18.8667 61.5827 17.6666 61.9281 15.4666H59.5513C59.3684 16.4867 58.5965 17.0667 57.1135 17.0667C55.2851 17.0667 54.2694 15.9466 54.1881 13.9667H61.9688V13.2666C61.9688 9.52666 59.5919 7.98666 56.9509 7.98666C53.924 7.98666 51.6691 10.1466 51.6691 13.3867V13.5467C51.6691 16.8466 53.924 18.8667 57.0525 18.8667ZM54.2288 12.3466C54.4725 10.7267 55.4679 9.74666 56.9509 9.74666C58.4746 9.74666 59.4091 10.5467 59.5309 12.3466H54.2288ZM67.8997 18.8667C70.6219 18.8667 72.1455 17.6466 72.1455 15.5267C72.1455 13.3066 70.6626 12.7067 68.1638 12.3266C66.4777 12.0466 65.9698 11.7466 65.9698 10.9867C65.9698 10.2467 66.5996 9.74666 67.6559 9.74666C68.7935 9.74666 69.3421 10.1866 69.5453 11.1467H71.8204C71.5564 8.78666 69.8296 7.98666 67.6559 7.98666C65.6651 7.98666 63.6742 9.02666 63.6742 11.1266C63.6742 13.0867 64.7103 13.8667 67.5137 14.3067C69.0779 14.5667 69.789 14.8867 69.789 15.7467C69.789 16.6267 69.1999 17.0867 67.8794 17.0867C66.437 17.0867 65.8885 16.4667 65.7666 15.4067H63.4507C63.5523 17.6266 65.1572 18.8667 67.8997 18.8667ZM77.0851 18.8667C78.7103 18.8667 79.6448 18.2866 80.3355 17.3867V18.6667H82.753V11.8067C82.753 8.94666 80.884 7.98666 78.5071 7.98666C76.1303 7.98666 74.1597 9.00666 73.9566 11.4467H76.3335C76.4554 10.4067 77.0851 9.80666 78.3649 9.80666C79.8073 9.80666 80.2949 10.5067 80.2949 11.9066V12.4467H78.9744C75.9271 12.4467 73.53 13.3267 73.53 15.7666C73.53 17.9466 75.1349 18.8667 77.0851 18.8667ZM77.6742 17.1267C76.4554 17.1267 75.9678 16.5466 75.9678 15.6667C75.9678 14.3866 77.1664 13.9667 79.0354 13.9667H80.2949V15.0066C80.2949 16.3467 79.1775 17.1267 77.6742 17.1267ZM85.5704 22.2467H88.0284V17.0266C88.5973 18.0467 89.8161 18.8667 91.5023 18.8667C94.2449 18.8667 96.2154 16.8267 96.2154 13.4666V13.3066C96.2154 9.92668 94.1635 7.98666 91.5023 7.98666C89.9381 7.98666 88.6176 8.88666 88.0284 9.88671V8.20666H85.5704V22.2467ZM90.8929 16.9467C89.1052 16.9467 87.9472 15.8467 87.9472 13.5067V13.3467C87.9472 11.0267 89.1661 9.88671 90.8726 9.88671C92.4775 9.88671 93.6963 11.0267 93.6963 13.3467V13.5067C93.6963 15.7467 92.7009 16.9467 90.8929 16.9467ZM103.098 18.8667C105.821 18.8667 107.629 17.6666 107.974 15.4666H105.597C105.414 16.4867 104.642 17.0667 103.16 17.0667C101.331 17.0667 100.315 15.9466 100.234 13.9667H108.015V13.2666C108.015 9.52666 105.638 7.98666 102.997 7.98666C99.97 7.98666 97.715 10.1466 97.715 13.3867V13.5467C97.715 16.8466 99.97 18.8667 103.098 18.8667ZM100.275 12.3466C100.518 10.7267 101.514 9.74666 102.997 9.74666C104.52 9.74666 105.455 10.5467 105.577 12.3466H100.275ZM114.883 18.8667C117.605 18.8667 119.413 17.6666 119.759 15.4666H117.381C117.198 16.4867 116.426 17.0667 114.944 17.0667C113.115 17.0667 112.1 15.9466 112.019 13.9667H119.799V13.2666C119.799 9.52666 117.422 7.98666 114.782 7.98666C111.754 7.98666 109.499 10.1466 109.499 13.3867V13.5467C109.499 16.8466 111.754 18.8667 114.883 18.8667ZM112.059 12.3466C112.303 10.7267 113.298 9.74666 114.782 9.74666C116.305 9.74666 117.239 10.5467 117.362 12.3466H112.059ZM121.995 18.6667H124.453V13.2267C124.453 11.0067 125.752 10.3266 127.906 10.3066V8.04667C126.118 8.06666 125.123 8.84666 124.453 10.1666V8.20666H121.995V18.6667Z" fill="white"/>
</g>
<defs>
<clipPath id="clip0_1532_628">
<rect width="129" height="39" fill="white"/>
</clipPath>
</defs>
</svg>
